<svg id="visual" viewBox="0 0 960 300" width="960" height="300" xmlns="http://www.w3.org/2000/svg" xmlns:xlink="http://www.w3.org/1999/xlink" version="1.1"><rect x="0" y="0" width="960" height="300" fill="#000000"></rect><path d="M0 189L17.8 178.7C35.7 168.3 71.3 147.7 106.8 146C142.3 144.3 177.7 161.7 213.2 166C248.7 170.3 284.3 161.7 320 156.5C355.7 151.3 391.3 149.7 426.8 146.2C462.3 142.7 497.7 137.3 533.2 143.5C568.7 149.7 604.3 167.3 640 168C675.7 168.7 711.3 152.3 746.8 149.5C782.3 146.7 817.7 157.3 853.2 158.3C888.7 159.3 924.3 150.7 942.2 146.3L960 142L960 301L942.2 301C924.3 301 888.7 301 853.2 301C817.7 301 782.3 301 746.8 301C711.3 301 675.7 301 640 301C604.3 301 568.7 301 533.2 301C497.7 301 462.3 301 426.8 301C391.3 301 355.7 301 320 301C284.3 301 248.7 301 213.2 301C177.7 301 142.3 301 106.8 301C71.3 301 35.7 301 17.8 301L0 301Z" fill="#e74e43"></path><path d="M0 203L17.8 199.3C35.7 195.7 71.3 188.3 106.8 183.5C142.3 178.7 177.7 176.3 213.2 181C248.7 185.7 284.3 197.3 320 202.7C355.7 208 391.3 207 426.8 201.7C462.3 196.3 497.7 186.7 533.2 184.7C568.7 182.7 604.3 188.3 640 186.2C675.7 184 711.3 174 746.8 168.7C782.3 163.3 817.7 162.7 853.2 171.7C888.7 180.7 924.3 199.3 942.2 208.7L960 218L960 301L942.2 301C924.3 301 888.7 301 853.2 301C817.7 301 782.3 301 746.8 301C711.3 301 675.7 301 640 301C604.3 301 568.7 301 533.2 301C497.7 301 462.3 301 426.8 301C391.3 301 355.7 301 320 301C284.3 301 248.7 301 213.2 301C177.7 301 142.3 301 106.8 301C71.3 301 35.7 301 17.8 301L0 301Z" fill="#da4148"></path><path d="M0 194L17.8 191.3C35.7 188.7 71.3 183.3 106.8 187.5C142.3 191.7 177.7 205.3 213.2 213.8C248.7 222.3 284.3 225.7 320 219.7C355.7 213.7 391.3 198.3 426.8 189.8C462.3 181.3 497.7 179.7 533.2 187.8C568.7 196 604.3 214 640 214.5C675.7 215 711.3 198 746.8 192.5C782.3 187 817.7 193 853.2 194C888.7 195 924.3 191 942.2 189L960 187L960 301L942.2 301C924.3 301 888.7 301 853.2 301C817.7 301 782.3 301 746.8 301C711.3 301 675.7 301 640 301C604.3 301 568.7 301 533.2 301C497.7 301 462.3 301 426.8 301C391.3 301 355.7 301 320 301C284.3 301 248.7 301 213.2 301C177.7 301 142.3 301 106.8 301C71.3 301 35.7 301 17.8 301L0 301Z" fill="#cc364c"></path><path d="M0 209L17.8 213C35.7 217 71.3 225 106.8 223.8C142.3 222.7 177.7 212.3 213.2 207.5C248.7 202.7 284.3 203.3 320 208.7C355.7 214 391.3 224 426.8 223.5C462.3 223 497.7 212 533.2 207.7C568.7 203.3 604.3 205.7 640 209C675.7 212.3 711.3 216.7 746.8 218.8C782.3 221 817.7 221 853.2 227.5C888.7 234 924.3 247 942.2 253.5L960 260L960 301L942.2 301C924.3 301 888.7 301 853.2 301C817.7 301 782.3 301 746.8 301C711.3 301 675.7 301 640 301C604.3 301 568.7 301 533.2 301C497.7 301 462.3 301 426.8 301C391.3 301 355.7 301 320 301C284.3 301 248.7 301 213.2 301C177.7 301 142.3 301 106.8 301C71.3 301 35.7 301 17.8 301L0 301Z" fill="#bc2c4f"></path><path d="M0 240L17.8 246C35.7 252 71.3 264 106.8 266.5C142.3 269 177.7 262 213.2 260.8C248.7 259.7 284.3 264.3 320 260.3C355.7 256.3 391.3 243.7 426.8 244C462.3 244.3 497.7 257.7 533.2 259.2C568.7 260.7 604.3 250.3 640 245.3C675.7 240.3 711.3 240.7 746.8 242.8C782.3 245 817.7 249 853.2 249.7C888.7 250.3 924.3 247.7 942.2 246.3L960 245L960 301L942.2 301C924.3 301 888.7 301 853.2 301C817.7 301 782.3 301 746.8 301C711.3 301 675.7 301 640 301C604.3 301 568.7 301 533.2 301C497.7 301 462.3 301 426.8 301C391.3 301 355.7 301 320 301C284.3 301 248.7 301 213.2 301C177.7 301 142.3 301 106.8 301C71.3 301 35.7 301 17.8 301L0 301Z" fill="#ac2451"></path><path d="M0 281L17.8 283C35.7 285 71.3 289 106.8 284.8C142.3 280.7 177.7 268.3 213.2 261.7C248.7 255 284.3 254 320 255.8C355.7 257.7 391.3 262.3 426.8 268.2C462.3 274 497.7 281 533.2 280.7C568.7 280.3 604.3 272.7 640 272.7C675.7 272.7 711.3 280.3 746.8 280.7C782.3 281 817.7 274 853.2 272.7C888.7 271.3 924.3 275.7 942.2 277.8L960 280L960 301L942.2 301C924.3 301 888.7 301 853.2 301C817.7 301 782.3 301 746.8 301C711.3 301 675.7 301 640 301C604.3 301 568.7 301 533.2 301C497.7 301 462.3 301 426.8 301C391.3 301 355.7 301 320 301C284.3 301 248.7 301 213.2 301C177.7 301 142.3 301 106.8 301C71.3 301 35.7 301 17.8 301L0 301Z" fill="#9b1e52"></path></svg>